<?xml version="1.0" encoding="utf-8"?>
<!-- Generator: Adobe Illustrator 19.0.0, SVG Export Plug-In . SVG Version: 6.00 Build 0)  -->
<svg version="1.1" id="图层_1" xmlns="http://www.w3.org/2000/svg" xmlns:xlink="http://www.w3.org/1999/xlink" x="0px" y="0px"
	 viewBox="0 0 25 25" style="enable-background:new 0 0 25 25;" xml:space="preserve">
<style type="text/css">
	.st0{fill:#3C3F40;}
</style>
<g id="XMLID_752_">
	<g id="XMLID_754_">
		<path id="XMLID_17_" class="st0" d="M20.3,1c1.2,0,2.1,0.3,2.7,0.9c2.3,2.3,0.4,9.2-6.2,15.8c-1.1,1.1-2.8,2.4-4.3,3.4
			c0.2-0.5,0.1-0.8,0-1.1c-0.2-0.4-0.6-0.6-1-0.6c-0.1,0-0.2,0-0.3,0c-1,0.3-2.6,1.1-4.3,2c-2,1-4.8,2.4-5.9,2.4
			c-0.2-1.1,1.9-5.2,2.9-7.2c0.8-1.5,1.5-3,1.9-4c0.2-0.5,0-0.9-0.1-1.1c-0.2-0.3-0.5-0.5-0.9-0.5c0,0-0.1,0-0.1,0
			c1-1.3,1.8-2.3,2.5-3C11.6,3.8,16.7,1,20.3,1 M20.3,0c-3.7,0-9.1,2.8-13.8,7.5c-1.2,1.2-2.7,3.1-3.8,4.7c-0.3,0.4,0,0.8,0.4,0.8
			c0.1,0,0.2,0,0.3-0.1c0.6-0.4,1.1-0.7,1.4-0.7c0.1,0,0.1,0.1,0.1,0.2c-1.1,3.1-6.1,10.9-4.6,12.4C0.4,24.9,0.7,25,1,25
			c2.3,0,8.2-3.8,10.5-4.4c0,0,0.1,0,0.1,0c0.4,0-0.2,1-0.8,2c-0.2,0.4,0.1,0.8,0.4,0.8c0.1,0,0.2,0,0.3-0.1
			c1.8-1.2,4.5-3.1,6.1-4.7C24,12,26.8,4.3,23.8,1.3C22.9,0.4,21.8,0,20.3,0L20.3,0z"/>
	</g>
	<g id="XMLID_753_">
		<path id="XMLID_14_" class="st0" d="M20.2,3.9c0.3,0,0.5,0.1,0.7,0.3c0.2,0.2,0.3,0.4,0.3,0.7S21,5.4,20.9,5.6
			c-0.2,0.2-0.4,0.3-0.7,0.3s-0.5-0.1-0.7-0.3c-0.2-0.2-0.3-0.4-0.3-0.7s0.1-0.5,0.3-0.7C19.7,4,19.9,3.9,20.2,3.9 M20.2,2.9
			c-0.5,0-1,0.2-1.4,0.6c-0.8,0.8-0.8,2,0,2.8c0.4,0.4,0.9,0.6,1.4,0.6s1-0.2,1.4-0.6c0.8-0.8,0.8-2,0-2.8
			C21.2,3.1,20.7,2.9,20.2,2.9L20.2,2.9z"/>
	</g>
</g>
</svg>
